<svg width="72" height="72" viewBox="0 0 72 72" fill="none" xmlns="http://www.w3.org/2000/svg">
<g clip-path="url(#clip0_254_6734)">
<path d="M36.0007 37.758L48.7297 50.484L44.4847 54.729L39.0007 49.245V66H33.0007V49.239L27.5167 54.729L23.2717 50.484L36.0007 37.758ZM36.0007 6C41.1516 6.00025 46.1229 7.89334 49.9692 11.3194C53.8156 14.7454 56.2689 19.4654 56.8627 24.582C60.5955 25.6 63.8518 27.8973 66.0626 31.0726C68.2735 34.2479 69.2981 38.0991 68.9575 41.9532C68.6169 45.8073 66.9328 49.4191 64.1993 52.1574C61.4659 54.8958 57.8571 56.5865 54.0037 56.934V50.892C55.3842 50.6948 56.7116 50.2247 57.9084 49.5089C59.1052 48.7932 60.1475 47.8462 60.9744 46.7232C61.8012 45.6003 62.3961 44.3239 62.7243 42.9685C63.0525 41.6132 63.1074 40.206 62.8858 38.8292C62.6642 37.4524 62.1706 36.1335 61.4338 34.9496C60.697 33.7656 59.7317 32.7403 58.5943 31.9334C57.4569 31.1266 56.1701 30.5544 54.8092 30.2502C53.4482 29.9461 52.0403 29.9161 50.6677 30.162C51.1375 27.9747 51.1121 25.7099 50.5933 23.5337C50.0745 21.3574 49.0755 19.3248 47.6695 17.5846C46.2634 15.8444 44.4859 14.4408 42.4671 13.4766C40.4483 12.5123 38.2394 12.0119 36.0022 12.0119C33.7649 12.0119 31.556 12.5123 29.5372 13.4766C27.5185 14.4408 25.7409 15.8444 24.3349 17.5846C22.9288 19.3248 21.9298 21.3574 21.411 23.5337C20.8922 25.7099 20.8668 27.9747 21.3367 30.162C18.5996 29.648 15.7705 30.2424 13.4717 31.8143C11.1729 33.3862 9.59265 35.807 9.07866 38.544C8.56467 41.281 9.15902 44.1101 10.7309 46.409C12.3029 48.7078 14.7236 50.288 17.4607 50.802L18.0007 50.892V56.934C14.147 56.587 10.5379 54.8967 7.80406 52.1586C5.07024 49.4205 3.38564 45.8087 3.04468 41.9545C2.70372 38.1003 3.7281 34.2489 5.93877 31.0733C8.14943 27.8978 11.4058 25.6002 15.1387 24.582C15.7318 19.4651 18.1849 14.7447 22.0314 11.3186C25.8779 7.89246 30.8495 5.99959 36.0007 6Z" fill="#BC8EE9"/>
</g>
<defs>
<clipPath id="clip0_254_6734">
<rect width="72" height="72" fill="white"/>
</clipPath>
</defs>
</svg>
